<?xml version="1.0" encoding="UTF-8" standalone="no"?>
<svg
   xmlns:rdf="http://www.w3.org/1999/02/22-rdf-syntax-ns#"
   xmlns:svg="http://www.w3.org/2000/svg"
   xmlns="http://www.w3.org/2000/svg"
   xmlns:xlink="http://www.w3.org/1999/xlink"
   version="1.1"
   width="310"
   height="474">
  <defs>
    <linearGradient
       id="l">
      <stop
         style="stop-color:#a9aaa9;stop-opacity:1"
         offset="0" />
      <stop
         style="stop-color:#738888;stop-opacity:1"
         offset="1" />
    </linearGradient>
    <radialGradient
       cx="6"
       cy="112"
       r="6"
       fx="6"
       fy="112"
       id="r"
       xlink:href="#l"
       gradientUnits="userSpaceOnUse"
       gradientTransform="matrix(1.5468626,0.83705899,-6.9128788,15.04159,1202.8381,-1520.5618)" />
  </defs>
  <g
     transform="translate(-233.344,42.90625)"
     id="ly1">
    <path
       d="m 270.83537,200.71941 c -7.61117,11.31027 -6.22191,17.43289 4.3e-4,26.78869 27.45657,-2.60322 72.83613,-8.17688 90.50924,-8.17688 17.67311,0 74.48176,5.21652 90.50976,8.17688 6.74228,-10.61106 6.27542,-15.47826 0,-26.78853 -15.28683,-15.08294 -82.85721,-14.03225 -90.52932,-14.00016 -12.7762,0.0534 -72.37229,-0.29873 -90.49011,14 z"
       style="fill:#4d4d4d;fill-opacity:1;stroke:none" />
    <path
       d="m 523.43615,-42.264998 c 0,0 -16.089,35.0076981 -20.32294,44.2202617 -15.46862,-8.3705872 -22.24294,6.369492 -6.77431,14.7400823 l -30.48441,66.330402 -30.48442,66.330382 -60.9688,132.66078 -9.28118,-5.02235 -40.64587,88.44051 37.1247,20.08941 40.64587,-88.44051 -9.28118,-5.02234 60.96883,-132.66078 30.48441,-66.330397 30.4844,-66.330399 c 15.46863,8.370587 22.24294,-6.369492 6.77431,-14.740081 l 20.32295,-44.22026 z"
       style="fill:url(#r);fill-opacity:1;stroke:#000000;stroke-width:0.94325542;stroke-linecap:butt;stroke-linejoin:miter;stroke-miterlimit:4;stroke-opacity:1;stroke-dasharray:none" />
    <g>
      <path
         d="m 270.844,227.5 c -23.1634,22.62055 -37.5,53.8572 -37.5,88.375 0,34.5178 14.3366,65.7857 37.5,88.40625 11.5818,11.31027 25.3738,14.45591 40.6874,20.78125 15.3137,6.32534 32.1395,5.8125 49.8126,5.8125 17.673,0 34.4988,0.51284 49.8124,-5.8125 15.3138,-6.32534 29.1059,-9.47098 40.6876,-20.78125 23.1633,-22.62055 37.5,-53.88845 37.5,-88.40625 0,-34.5178 -14.3367,-65.75445 -37.5,-88.375 -34.9297,8.29723 -82.8592,8.03209 -90.5313,8 -12.7762,-0.0534 -60.208,0.2273 -90.4687,-8 z"
         style="fill:#2b1100;fill-opacity:1;stroke:none" />
      <path
         d="m 270.83537,227.50018 c -7.61117,-11.31027 -6.22191,-17.43289 4.3e-4,-26.78869 27.45657,6.53179 72.83613,8.17688 90.50924,8.17688 17.67311,0 65.91033,-1.28795 90.50976,-8.17688 6.74228,10.61106 6.27542,15.47826 0,26.78853 -34.92969,8.29723 -82.85721,8.03225 -90.52932,8.00016 -12.7762,-0.0534 -60.22943,0.2273 -90.49011,-8 z"
         style="fill:#999999;fill-opacity:1;stroke:none" />
    </g>
  </g>
</svg>